<svg version="1.1" xmlns="http://www.w3.org/2000/svg" xmlns:xlink="http://www.w3.org/1999/xlink" viewBox="0 0 172 172"><g fill="none" fill-rule="none" stroke="none" stroke-width="1" stroke-linecap="butt" stroke-linejoin="miter" stroke-miterlimit="10" stroke-dasharray="" stroke-dashoffset="0" font-family="none" font-weight="none" font-size="none" text-anchor="none" style="mix-blend-mode: normal"><path d="M0,172v-172h172v172z" fill="none" fill-rule="nonzero"></path><g><path d="M5.375,37.625c0,-17.81119 14.43881,-32.25 32.25,-32.25h96.75c17.81114,0 32.25,14.43881 32.25,32.25v96.75c0,17.81114 -14.43886,32.25 -32.25,32.25h-96.75c-17.81119,0 -32.25,-14.43886 -32.25,-32.25z" fill="#c5faff" fill-rule="nonzero"></path><path d="M43,53.06383c0,-5.55813 4.50575,-10.06383 10.06383,-10.06383h65.87277c5.55775,0 10.06361,4.50575 10.06361,10.06383v65.87277c0,5.55775 -4.50586,10.06361 -10.06361,10.06361h-65.87277c-5.55813,0 -10.06383,-4.50586 -10.06383,-10.06361zM53.06383,48.48938c-2.52641,0 -4.57445,2.04804 -4.57445,4.57445v65.87277c0,2.52625 2.04804,4.57412 4.57445,4.57412h65.87277c2.52625,0 4.57412,-2.04787 4.57412,-4.57412v-65.87277c0,-2.52641 -2.04787,-4.57445 -4.57412,-4.57445z" fill="#25c6da" fill-rule="evenodd"></path><g fill="#26c6da" fill-rule="evenodd"><path d="M64.95795,78.68086c0,-11.62183 9.4213,-21.04259 21.04259,-21.04259c11.62129,0 21.04259,9.42076 21.04259,21.04259v29.27655c0,1.51575 -1.22872,2.74447 -2.74447,2.74447h-36.59623c-1.51575,0 -2.74447,-1.22872 -2.74447,-2.74447zM86.00054,63.12776c-8.58979,0 -15.5531,6.96331 -15.5531,15.5531v26.53207h31.1062v-26.53207c0,-8.58979 -6.96331,-15.5531 -15.5531,-15.5531z"></path><path d="M53.97844,107.95741c0,-1.51575 1.22872,-2.74447 2.74448,-2.74447h58.5531c1.51629,0 2.74501,1.22872 2.74501,2.74447c0,1.51575 -1.22872,2.74447 -2.74501,2.74447h-58.5531c-1.51575,0 -2.74448,-1.22872 -2.74448,-2.74447z"></path><path d="M78.68086,72.27655c-1.51575,0 -2.74447,1.22872 -2.74447,2.74447v10.97898c0,1.51575 1.22872,2.74447 2.74447,2.74447h14.63828c1.51575,0 2.74501,-1.22872 2.74501,-2.74447v-10.97898c0,-1.51575 -1.22926,-2.74447 -2.74501,-2.74447z"></path><path d="M75.93639,96.97898c0,-1.51575 1.22872,-2.74448 2.74447,-2.74448h14.63827c1.51575,0 2.74501,1.22872 2.74501,2.74448c0,1.51575 -1.22926,2.74501 -2.74501,2.74501h-14.63828c-1.51575,0 -2.74447,-1.22926 -2.74447,-2.74501z"></path></g></g></g></svg>