<?xml version="1.0" encoding="UTF-8"?>
<svg xmlns="http://www.w3.org/2000/svg" xmlns:xlink="http://www.w3.org/1999/xlink" viewBox="0 0 480 480" width="480px" height="480px">
<g id="surface104951751">
<path style=" stroke:none;fill-rule:nonzero;fill:rgb(66.274512%,7.450981%,7.450981%);fill-opacity:1;" d="M 400 120 L 220 120 L 180 80 L 80 80 C 58 80 40 98 40 120 L 40 200 L 440 200 L 440 160 C 440 138 422 120 400 120 Z M 400 120 "/>
<path style=" stroke:none;fill-rule:nonzero;fill:rgb(93.725491%,30.19608%,30.19608%);fill-opacity:1;" d="M 400 120 L 80 120 C 58 120 40 138 40 160 L 40 360 C 40 382 58 400 80 400 L 400 400 C 422 400 440 382 440 360 L 440 160 C 440 138 422 120 400 120 Z M 400 120 "/>
</g>
</svg>
