<?xml version="1.0" encoding="utf-8"?>
<!-- Generator: Adobe Illustrator 24.1.0, SVG Export Plug-In . SVG Version: 6.00 Build 0)  -->
<svg version="1.1" id="Layer_1" xmlns="http://www.w3.org/2000/svg" xmlns:xlink="http://www.w3.org/1999/xlink" x="0px" y="0px"
	 viewBox="0 0 30 30" style="enable-background:new 0 0 30 30;" xml:space="preserve">
<style type="text/css">
	.st0{fill:#FFFFFF;}
</style>
<g id="sfnFvy.tif_1_">
	<g>
		<path class="st0" d="M4.8,30c-0.4-0.1-0.9-0.2-1.3-0.4C1.4,28.9,0,26.9,0,24.7c0-6.5,0-12.9,0-19.4C0,2.3,2.4,0,5.3,0
			c6.5,0,13,0,19.5,0c2.5,0,4.8,1.9,5.1,4.4C30,4.7,30,5,30,5.3c0,6.5,0,12.9,0,19.4c0,2.6-1.9,4.9-4.6,5.2c-0.1,0-0.1,0-0.2,0.1
			C18.5,30,11.6,30,4.8,30z M26.9,6.3c0-0.1,0-0.3,0-0.5c-0.2-1.3-0.9-2.2-2.1-2.6c-1.3-0.4-2.4-0.2-3.4,0.8
			c-0.7,0.7-1.4,1.4-2.1,2.1c-3,3-5.9,5.9-8.9,8.9c-0.7,0.7-1.2,1.4-1.3,2.4C9,18.9,9.8,20.2,11,20.7c1.3,0.6,2.8,0.3,3.7-0.7
			c2-2,3.9-4,5.9-6c1.8-1.8,3.5-3.6,5.3-5.3C26.6,8.1,26.9,7.3,26.9,6.3z M3.1,23.5c0,1.8,1.5,3.4,3.3,3.4c1.8,0,3.3-1.5,3.4-3.3
			c0-1.8-1.5-3.4-3.3-3.4C4.6,20.2,3.1,21.7,3.1,23.5z"/>
	</g>
</g>
</svg>
